<?xml version="1.0" encoding="utf-8"?>
<!-- Generator: Adobe Illustrator 24.2.0, SVG Export Plug-In . SVG Version: 6.00 Build 0)  -->
<svg version="1.1" id="Layer_1" xmlns="http://www.w3.org/2000/svg" xmlns:xlink="http://www.w3.org/1999/xlink" x="0px" y="0px"
	 width="154.8px" height="156.2px" viewBox="0 0 154.8 156.2" enable-background="new 0 0 154.8 156.2" xml:space="preserve">
<path fill="#009FE3" d="M51.3,109.1c-2.2-0.6-4.6-3-5.1-5.3l-8.1-32.5c-0.6-2.3,0.3-5.5,2-7.1l24.1-23.3c1.7-1.6,4.9-2.4,7.1-1.8
	l32.2,9.2c2.2,0.6,4.6,3,5.1,5.3l8.1,32.5c0.6,2.3-0.3,5.5-2,7.1l-24.1,23.3c-1.7,1.6-4.9,2.4-7.1,1.8L51.3,109.1z"/>
<path fill="#FFFFFF" d="M63,64.9v3.6h0.1c0.9-1.5,2.1-2.6,3.6-3.3c1.4-0.7,3-1,4.8-1c2.2,0,4.1,0.4,5.7,1.2c1.6,0.8,2.9,1.9,3.9,3.3
	c1,1.4,1.8,3,2.3,4.8c0.5,1.8,0.8,3.7,0.8,5.7c0,1.9-0.3,3.7-0.8,5.4c-0.5,1.7-1.3,3.3-2.3,4.6c-1,1.3-2.3,2.4-3.8,3.2
	c-1.5,0.8-3.3,1.2-5.4,1.2c-1.7,0-3.3-0.4-4.8-1.1s-2.7-1.7-3.6-3.1h-0.1v13.2h-7.7V64.9H63z M73,87.1c0.8-0.5,1.5-1.2,2.1-2
	c0.5-0.8,0.9-1.8,1.1-2.8c0.2-1.1,0.3-2.2,0.3-3.3c0-1.1-0.1-2.2-0.4-3.3c-0.2-1.1-0.6-2-1.2-2.9c-0.5-0.8-1.2-1.5-2.1-2.1
	C72,70.2,71,70,69.7,70c-1.3,0-2.3,0.3-3.2,0.8c-0.8,0.5-1.5,1.2-2.1,2c-0.5,0.8-0.9,1.8-1.1,2.9c-0.2,1.1-0.3,2.2-0.3,3.3
	c0,1.1,0.1,2.2,0.4,3.3c0.2,1.1,0.6,2,1.1,2.8c0.5,0.8,1.2,1.5,2.1,2c0.9,0.5,1.9,0.8,3.1,0.8C71.1,87.8,72.1,87.6,73,87.1z"/>
<path fill="#FFFFFF" d="M81.3,70.1v-5.1h4.6v-2.2c0-2.5,0.8-4.5,2.3-6.1c1.5-1.6,3.9-2.4,7-2.4c0.7,0,1.4,0,2.1,0.1
	c0.7,0.1,1.4,0.1,2,0.1v5.7c-0.9-0.1-1.8-0.2-2.8-0.2c-1,0-1.8,0.2-2.2,0.7s-0.7,1.3-0.7,2.5v1.7h5.3v5.1h-5.3v22.8h-7.7V70.1H81.3z
	"/>
</svg>
